<svg width="25" height="24" viewBox="0 0 41 40" fill="none" xmlns="http://www.w3.org/2000/svg">
<path fill-rule="evenodd" clip-rule="evenodd" d="M37.5833 8.33331V31.6666C37.5833 34.4281 35.2888 36.6666 32.4583 36.6666H8.54167C5.71121 36.6666 3.41667 34.4281 3.41667 31.6666V8.33331C3.41667 5.57189 5.71121 3.33331 8.54167 3.33331H32.4583C35.2888 3.33331 37.5833 5.57189 37.5833 8.33331ZM25.1125 18.8166C25.7749 19.4667 25.7749 20.5166 25.1125 21.1666L18.2792 27.8333C17.6129 28.4795 16.5367 28.4795 15.8704 27.8333C15.2081 27.1833 15.2081 26.1334 15.8704 25.4833L21.4908 20L15.8875 14.5C15.4572 14.0772 15.2908 13.4626 15.4509 12.8877C15.6111 12.3128 16.0734 11.8648 16.6639 11.7127C17.2543 11.5605 17.8831 11.7272 18.3133 12.15L25.1125 18.8166ZM32.4583 6.66665C33.4018 6.66665 34.1667 7.41284 34.1667 8.33331V31.6666C34.1667 32.5871 33.4018 33.3333 32.4583 33.3333H8.54167C7.59818 33.3333 6.83333 32.5871 6.83333 31.6666V8.33331C6.83333 7.41284 7.59818 6.66665 8.54167 6.66665H32.4583Z" fill="currentColor" fill-opacity="0.84"/>
</svg>
