<svg width="26" height="31" viewBox="0 0 36 41" fill="none" xmlns="http://www.w3.org/2000/svg">
<path fill-rule="evenodd" clip-rule="evenodd" d="M33 20.7392C33.0069 23.423 31.1946 25.6584 28.845 25.8642L12.075 27.3333C12.24 29.0417 12.705 29.0417 13.5 29.0417H30C30.4517 29.0221 30.887 29.2355 31.185 29.6225C32.7689 30.6529 33.472 32.8318 32.8509 34.7851C32.2298 36.7384 30.4647 37.8994 28.6688 37.5359C26.8729 37.1724 25.5671 35.3899 25.575 33.3125C25.5769 33.0258 25.602 32.7398 25.65 32.4583H19.5C19.5229 32.7425 19.5229 33.0284 19.5 33.3125C19.5 35.6712 17.8211 37.5833 15.75 37.5833C13.6789 37.5833 12 35.6712 12 33.3125C12.001 32.9664 12.0414 32.6219 12.12 32.2875C9 31.4504 9 27.7604 9 25.7617L6.225 6.83334H4.5C3.67157 6.83334 3 6.0685 3 5.12501C3 4.18152 3.67157 3.41668 4.5 3.41668H7.5C8.24309 3.40579 8.88116 4.0162 9 4.85168L9.27 6.83334L31.605 8.54168C32.3922 8.60458 33.0019 9.35132 33 10.25V20.7392ZM30 33.3125C30 32.8408 29.6642 32.4583 29.25 32.4583C28.8358 32.4583 28.5 32.8408 28.5 33.3125C28.5 33.7843 28.8358 34.1667 29.25 34.1667C29.6642 34.1667 30 33.7843 30 33.3125ZM15.75 32.4583C16.1642 32.4583 16.5 32.8408 16.5 33.3125C16.5 33.7843 16.1642 34.1667 15.75 34.1667C15.3358 34.1667 15 33.7843 15 33.3125C15 32.8408 15.3358 32.4583 15.75 32.4583ZM11.775 23.9167H11.88L28.62 22.4646C29.4012 22.3932 30.0025 21.6489 30 20.7563V11.8558L9.78 10.25L11.775 23.9167Z" fill="currentColor"/>
</svg>
