<svg width="16" height="16" viewBox="0 0 16 16" fill="none" xmlns="http://www.w3.org/2000/svg">
<path fill-rule="evenodd" clip-rule="evenodd" d="M2.0785 8.31137C1.97383 8.11737 1.97383 7.88204 2.0785 7.68804C3.33983 5.35537 5.66983 3.33337 7.99983 3.33337C10.3298 3.33337 12.6598 5.35537 13.9212 7.68871C14.0258 7.88271 14.0258 8.11804 13.9212 8.31204C12.6598 10.6447 10.3298 12.6667 7.99983 12.6667C5.66983 12.6667 3.33983 10.6447 2.0785 8.31137Z" stroke="currentColor" stroke-linecap="round" stroke-linejoin="round"/>
<path d="M9.41421 6.58579C10.1953 7.36683 10.1953 8.63317 9.41421 9.41421C8.63317 10.1953 7.36683 10.1953 6.58579 9.41421C5.80474 8.63317 5.80474 7.36683 6.58579 6.58579C7.36683 5.80474 8.63317 5.80474 9.41421 6.58579" stroke="currentColor"  stroke-linecap="round" stroke-linejoin="round"/>
</svg>
