<svg width="24" height="24" viewBox="0 0 48 48" fill="none" xmlns="http://www.w3.org/2000/svg">
<path fill-rule="evenodd" clip-rule="evenodd" d="M34 14C34 8.47715 29.5228 4 24 4C18.4772 4 14 8.47715 14 14C14 19.5228 18.4772 24 24 24H22C12.0589 24 4 32.0589 4 42C4 43.1046 4.89543 44 6 44H42C43.1046 44 44 43.1046 44 42C44 32.0589 35.9411 24 26 24H24C26.6522 24 29.1957 22.9464 31.0711 21.0711C32.9464 19.1957 34 16.6522 34 14ZM22 28C15.0392 27.9982 9.13439 33.1106 8.14 40H39.86C38.8656 33.1106 32.9608 27.9982 26 28H22ZM18 14C18 17.3137 20.6863 20 24 20C25.5913 20 27.1174 19.3679 28.2426 18.2426C29.3679 17.1174 30 15.5913 30 14C30 10.6863 27.3137 8 24 8C20.6863 8 18 10.6863 18 14Z" fill="currentColor"/>
</svg>
