<svg width="26" height="23" viewBox="0 0 36 33" fill="none" xmlns="http://www.w3.org/2000/svg">
<path fill-rule="evenodd" clip-rule="evenodd" d="M18 30.25C9.71573 30.25 3 24.0939 3 16.5C3 8.90608 9.71573 2.75 18 2.75C21.9782 2.75 25.7936 4.19866 28.6066 6.77728C31.4196 9.35591 33 12.8533 33 16.5C33 24.0939 26.2843 30.25 18 30.25ZM27 16.5C27 17.2594 26.3284 17.875 25.5 17.875H19.5V23.375C19.5 24.1344 18.8284 24.75 18 24.75C17.1716 24.75 16.5 24.1344 16.5 23.375V17.875H10.5C9.67157 17.875 9 17.2594 9 16.5C9 15.7406 9.67157 15.125 10.5 15.125H16.5V9.625C16.5 8.86561 17.1716 8.25 18 8.25C18.8284 8.25 19.5 8.86561 19.5 9.625V15.125H25.5C26.3284 15.125 27 15.7406 27 16.5ZM18 5.5C24.6274 5.5 30 10.4249 30 16.5C30 19.4174 28.7357 22.2153 26.4853 24.2782C24.2348 26.3411 21.1826 27.5 18 27.5C11.3726 27.5 6 22.5751 6 16.5C6 10.4249 11.3726 5.5 18 5.5Z" fill="currentColor"/>
</svg>
