<svg width="16" height="16" viewBox="0 0 28 28" fill="none" xmlns="http://www.w3.org/2000/svg">
<path fill-rule="evenodd" clip-rule="evenodd" d="M19.0283 17.3833L25.3283 23.6716C25.5492 23.8907 25.6734 24.1889 25.6734 24.5C25.6734 24.8111 25.5492 25.1093 25.3283 25.3283C25.1093 25.5492 24.8111 25.6734 24.5 25.6734C24.1889 25.6734 23.8907 25.5492 23.6717 25.3283L17.3833 19.0283C15.7529 20.3081 13.7394 21.0026 11.6667 21C6.51201 21 2.33333 16.8213 2.33333 11.6666C2.33333 6.51199 6.51201 2.33331 11.6667 2.33331C16.8213 2.33331 21 6.51199 21 11.6666C21.0026 13.7394 20.3081 15.7528 19.0283 17.3833ZM11.6667 4.66665C7.80067 4.66665 4.66667 7.80065 4.66667 11.6666C4.66667 15.5326 7.80067 18.6666 11.6667 18.6666C15.5327 18.6666 18.6667 15.5326 18.6667 11.6666C18.6667 7.80065 15.5327 4.66665 11.6667 4.66665Z" fill="currentColor"/>
</svg>
