<svg width="16" height="16" viewBox="0 0 24 24" fill="none" xmlns="http://www.w3.org/2000/svg">
<path fill-rule="evenodd" clip-rule="evenodd" d="M21.31 9.10999L20 8.67999L20.62 7.45999C20.8171 7.07508 20.7445 6.60706 20.44 6.29999L17.7 3.54999C17.3929 3.24548 16.9249 3.17286 16.54 3.36999L15.32 3.99999L14.89 2.69999C14.7506 2.27066 14.3409 1.98793 13.89 2.00999H10.06C9.60913 1.98793 9.19939 2.27066 9.05999 2.69999L8.67999 3.99999L7.45999 3.36999C7.07508 3.17286 6.60706 3.24548 6.29999 3.54999L3.54999 6.29999C3.24548 6.60706 3.17286 7.07508 3.36999 7.45999L3.99999 8.67999L2.69999 9.10999C2.27066 9.24939 1.98793 9.65913 2.00999 10.11V13.99C1.98793 14.4409 2.27066 14.8506 2.69999 14.99L3.99999 15.42L3.37999 16.64C3.18286 17.0249 3.25548 17.4929 3.55999 17.8L6.29999 20.45C6.60706 20.7545 7.07508 20.8271 7.45999 20.63L8.67999 20L9.10999 21.3C9.24939 21.7293 9.65913 22.0121 10.11 21.99H13.99C14.4409 22.0121 14.8506 21.7293 14.99 21.3L15.42 20L16.64 20.62C17.0249 20.8171 17.4929 20.7445 17.8 20.44L20.55 17.69C20.8545 17.3829 20.9271 16.9149 20.73 16.53L20 15.32L21.3 14.89C21.7293 14.7506 22.0121 14.3409 21.99 13.89V10.06C21.9911 9.63008 21.7173 9.24757 21.31 9.10999ZM6.99999 12C6.99999 9.23857 9.23857 6.99999 12 6.99999C13.3261 6.99999 14.5978 7.52678 15.5355 8.46446C16.4732 9.40214 17 10.6739 17 12C17 14.7614 14.7614 17 12 17C9.23857 17 6.99999 14.7614 6.99999 12ZM8.99999 12C8.99999 13.6568 10.3431 15 12 15C12.7956 15 13.5587 14.6839 14.1213 14.1213C14.6839 13.5587 15 12.7956 15 12C15 10.3431 13.6568 8.99999 12 8.99999C10.3431 8.99999 8.99999 10.3431 8.99999 12ZM19.39 13.42L20 13.22V10.78L19.39 10.58C18.8348 10.4008 18.3856 9.98803 18.16 9.44999C17.9384 8.9098 17.964 8.29976 18.23 7.77999L18.52 7.19999L16.8 5.47999L16.22 5.76999C15.7002 6.0321 15.0919 6.05469 14.5541 5.83187C14.0162 5.60905 13.6022 5.16293 13.42 4.60999L13.22 3.99999H10.78L10.58 4.60999C10.3978 5.16293 9.98376 5.60905 9.44591 5.83187C8.90807 6.05469 8.29983 6.0321 7.77999 5.76999L7.19999 5.47999L5.47999 7.19999L5.76999 7.77999C6.03597 8.29976 6.06154 8.9098 5.83999 9.44999C5.61443 9.98803 5.16518 10.4008 4.60999 10.58L3.99999 10.78V13.22L4.60999 13.42C5.16518 13.5992 5.61443 14.012 5.83999 14.55C6.06154 15.0902 6.03597 15.7002 5.76999 16.22L5.47999 16.8L7.19999 18.52L7.77999 18.23C8.29983 17.9679 8.90807 17.9453 9.44591 18.1681C9.98376 18.3909 10.3978 18.8371 10.58 19.39L10.78 20H13.22L13.42 19.39C13.6022 18.8371 14.0162 18.3909 14.5541 18.1681C15.0919 17.9453 15.7002 17.9679 16.22 18.23L16.8 18.52L18.52 16.8L18.23 16.22C17.964 15.7002 17.9384 15.0902 18.16 14.55C18.3856 14.012 18.8348 13.5992 19.39 13.42Z" fill="currentColor"/>
</svg>
