<svg width="20" height="20" viewBox="0 0 24 24" fill="none" xmlns="http://www.w3.org/2000/svg">
<path fill-rule="evenodd" clip-rule="evenodd" d="M19 12C19 13.1046 19.8954 14 21 14C21.5523 14 22 14.4477 22 15V17C22 18.6569 20.6569 20 19 20H5C3.34315 20 2 18.6569 2 17V15C2 14.4477 2.44772 14 3 14C4.10457 14 5 13.1046 5 12C5 10.8954 4.10457 10 3 10C2.44772 10 2 9.55228 2 9V7C2 5.34315 3.34315 4 5 4H19C20.6569 4 22 5.34315 22 7V9C22 9.55228 21.5523 10 21 10C19.8954 10 19 10.8954 19 12ZM15 11V13C15 13.5523 14.5523 14 14 14C13.4477 14 13 13.5523 13 13V11C13 10.4477 13.4477 10 14 10C14.5523 10 15 10.4477 15 11ZM20 8.13C18.235 8.58572 17.0014 10.1771 17 12C17.0014 13.8229 18.235 15.4143 20 15.87V17C20 17.5523 19.5523 18 19 18H15V17C15 16.4477 14.5523 16 14 16C13.4477 16 13 16.4477 13 17V18H5C4.44772 18 4 17.5523 4 17V15.87C5.76044 15.4099 6.98852 13.8196 6.98852 12C6.98852 10.1804 5.76044 8.59012 4 8.13V7C4 6.44772 4.44772 6 5 6H13V7C13 7.55228 13.4477 8 14 8C14.5523 8 15 7.55228 15 7V6H19C19.5523 6 20 6.44772 20 7V8.13Z" fill="currentColor"/>
</svg>
